<svg width="30" height="30" viewBox="0 0 30 30" fill="none" xmlns="http://www.w3.org/2000/svg">
<circle cx="15" cy="15" r="15" fill="#1814F3"/>
<g clip-path="url(#clip0_20_738)">
<path d="M22.587 11.1632L21.2365 12.5138C21.0988 12.6515 20.8761 12.6515 20.7384 12.5138L17.4865 9.26181C17.3488 9.12412 17.3488 8.90146 17.4865 8.76376L18.837 7.41318C19.3849 6.86533 20.2755 6.86533 20.8263 7.41318L22.587 9.17392C23.1378 9.72177 23.1378 10.6124 22.587 11.1632ZM16.3263 9.92392L8.63294 17.6173L8.01185 21.1768C7.92689 21.6573 8.34583 22.0733 8.8263 21.9913L12.3859 21.3673L20.0792 13.6739C20.2169 13.5362 20.2169 13.3136 20.0792 13.1759L16.8273 9.92392C16.6867 9.78622 16.464 9.78622 16.3263 9.92392ZM11.6359 16.9581C11.4747 16.797 11.4747 16.5392 11.6359 16.378L16.1476 11.8663C16.3087 11.7052 16.5665 11.7052 16.7277 11.8663C16.8888 12.0274 16.8888 12.2852 16.7277 12.4464L12.216 16.9581C12.0548 17.1192 11.797 17.1192 11.6359 16.9581ZM10.5783 19.422H11.9845V20.4854L10.0949 20.8165L9.18372 19.9054L9.51478 18.0157H10.5783V19.422Z" fill="white"/>
</g>
<defs>
<clipPath id="clip0_20_738">
<rect width="15" height="15" fill="white" transform="translate(8 7)"/>
</clipPath>
</defs>
</svg>
